<?xml version="1.0" encoding="UTF-8"?>
<svg id="Layer_1" data-name="Layer 1" xmlns="http://www.w3.org/2000/svg" viewBox="0 0 1080 1080">
  <defs>
    <style>
      .cls-1 {
        fill: #d9d4c8;
        stroke-width: 0px;
      }
    </style>
  </defs>
  <path class="cls-1" d="M693.52,183.96h-340.58v44.03h11.21v-32.82h324.47l.07.06v197.11h197.11l.06.07v493.14H364.15v-269.29h-11.21v280.5h544.13v-509.25l-203.55-203.55ZM699.89,381.13v-174.69l174.7,174.69h-174.7Z"/>
  <path class="cls-1" d="M343.1,249.46c-87.58,0-158.83,71.25-158.83,158.84v5.69h164.52v-164.53h-5.69ZM337.41,402.6h-141.64c2.92-76.78,64.85-138.71,141.64-141.64v141.64Z"/>
  <path class="cls-1" d="M337.41,260.96v141.64h-141.64c2.92-76.78,64.85-138.71,141.64-141.64Z"/>
  <path class="cls-1" d="M487.02,327.74l.08-.08-8.05-8.05-.08.08c-29.5-27.51-67.71-42.57-108.21-42.57h-5.7v153.14h-153.14v5.69c0,42.41,16.51,82.3,46.53,112.33,30.01,29.98,69.9,46.51,112.31,46.51,87.58,0,158.83-71.25,158.83-158.84,0-40.5-15.06-78.71-42.57-108.21ZM376.45,288.62c35.35,1.33,68.52,15.06,94.46,39.12l-94.46,94.47v-133.59ZM370.76,583.4c-39.37,0-76.41-15.34-104.26-43.17-26.52-26.52-41.68-61.35-43.08-98.58h149.69l105.86-105.86c25.34,27.35,39.23,62.7,39.23,100.16,0,81.31-66.14,147.45-147.44,147.45Z"/>
  <path class="cls-1" d="M518.2,435.95c0,81.31-66.14,147.45-147.44,147.45-39.37,0-76.41-15.34-104.26-43.17-26.52-26.52-41.68-61.35-43.08-98.58h149.69l105.86-105.86c25.34,27.35,39.23,62.7,39.23,100.16Z"/>
  <rect class="cls-1" x="546.17" y="497.68" width="307.45" height="11.39"/>
  <rect class="cls-1" x="546.17" y="569.57" width="307.45" height="11.39"/>
  <rect class="cls-1" x="553.19" y="641.46" width="172.17" height="11.39"/>
  <path class="cls-1" d="M725.45,798.24c-5.77,0-11.45,1.54-16.41,4.44l-57.87-57.86c3.83-5.44,5.88-11.91,5.88-18.69,0-18-14.63-32.62-32.62-32.62s-32.63,14.62-32.63,32.62c0,7.69,2.66,14.99,7.5,20.78h0s-57.21,57.22-57.21,57.22h-.01c-5.41-3.84-11.89-5.89-18.67-5.89-5.78,0-11.45,1.54-16.42,4.44l-57.86-57.86c3.82-5.44,5.87-11.91,5.87-18.69,0-18-14.62-32.62-32.61-32.62s-32.63,14.62-32.63,32.62,14.64,32.63,32.63,32.63c6.78,0,13.27-2.07,18.69-5.89l57.2,57.19c-2.42,2.9-4.3,6.19-5.56,9.7-1.28,3.52-1.94,7.27-1.94,11.11,0,17.99,14.64,32.63,32.63,32.63s32.61-14.64,32.61-32.63c0-6.78-2.06-13.24-5.88-18.67l57.88-57.88c4.94,2.89,10.62,4.44,16.41,4.44,6.78,0,13.26-2.07,18.67-5.87l57.2,57.19c-4.81,5.81-7.48,13.13-7.48,20.79,0,17.99,14.64,32.63,32.63,32.63s32.62-14.64,32.62-32.63-14.63-32.63-32.62-32.63ZM440.88,736.57c-.92,1.66-2.09,3.2-3.49,4.59-1.37,1.38-2.9,2.53-4.56,3.46-3.14,1.81-6.72,2.75-10.44,2.75-11.71,0-21.25-9.53-21.25-21.24s9.54-21.23,21.25-21.23,21.23,9.51,21.23,21.23c0,3.72-.95,7.3-2.74,10.44ZM523.41,852.12c-11.71,0-21.25-9.54-21.25-21.25,0-6.36,2.83-12.36,7.75-16.43,3.84-3.16,8.5-4.81,13.5-4.81,5.68,0,11.01,2.21,15,6.24,4.02,4,6.23,9.34,6.23,15,0,11.71-9.52,21.25-21.23,21.25ZM639.43,741.16c-3.99,4-9.32,6.21-15,6.21-4.98,0-9.65-1.66-13.49-4.83-4.93-4.05-7.76-10.02-7.76-16.41,0-11.72,9.54-21.23,21.25-21.23s21.23,9.51,21.23,21.23c0,5.69-2.21,11.01-6.23,15.03ZM725.45,852.12c-11.71,0-21.25-9.54-21.25-21.25,0-4.62,1.5-9.04,4.2-12.69,1.01-1.36,2.2-2.63,3.55-3.74,1.71-1.4,3.58-2.5,5.55-3.3,2.5-.99,5.17-1.51,7.95-1.51,11.71,0,21.23,9.53,21.23,21.24s-9.52,21.25-21.23,21.25Z"/>
</svg>