<?xml version="1.0" encoding="UTF-8"?>
<svg id="Layer_1" data-name="Layer 1" xmlns="http://www.w3.org/2000/svg" viewBox="0 0 1080 1080">
  <defs>
    <style>
      .cls-1 {
        fill: #d9d4c8;
      }

      .cls-1, .cls-2 {
        stroke-width: 0px;
      }

      .cls-2 {
        fill: #792e29;
      }
    </style>
  </defs>
  <rect class="cls-2" width="1080" height="1080"/>
  <path class="cls-1" d="M776.03,202.95l-132.78,131.67c-9.13,9.06-23.75,9.45-33.36.9l-142.05-126.16c-9.2-8.16-23.03-8.2-32.27-.07l-166.36,146.2c-5.28,4.63-8.29,11.31-8.29,18.33v485.91c0,21.25,25.28,32.34,40.89,17.96l154.35-142.12,156,136c9.24,8.06,23.03,8.02,32.23-.12l164.99-146.2c5.24-4.63,8.23-11.28,8.23-18.26V220.25c0-21.66-26.18-32.58-41.57-17.31ZM420.33,672.8c0,6.84-2.85,13.35-7.85,17.96l-89.02,81.95v-370.59c0-7,3.01-13.69,8.29-18.3l88.58-77.85v366.84ZM596.88,775.18l-113.99-99.28v-369.51l105.81,94c5.21,4.61,8.18,11.26,8.18,18.23v356.55ZM755.04,678.85c0,6.97-2.99,13.62-8.23,18.26l-87.37,77.41v-357.71c0-6.49,2.62-12.72,7.23-17.31l88.37-87.63v366.98Z"/>
</svg>