<?xml version="1.0" encoding="UTF-8"?>
<svg id="Layer_1" data-name="Layer 1" xmlns="http://www.w3.org/2000/svg" viewBox="0 0 1080 1080">
  <defs>
    <style>
      .cls-1 {
        fill: #d9d4c8;
        stroke-width: 0px;
      }
    </style>
  </defs>
  <path class="cls-1" d="M853.7,790.66c.2.75.36,1.5.44,2.26.63,6.61-4.28,13.35-12,13.54l-89.1,2.34-4.44.12h-.32c-.83,0-1.62-.08-2.42-.24-.4-.08-.79-.2-1.19-.32-1.86-.55-3.6-1.58-5.07-3.05t-.08-.04l-129.93-129.97-23.96-23.92-34.69-34.73c-.12-.12-.28-.24-.4-.36l-10.85-10.85-10.85,10.85-.32.36-34.77,34.73-23.96,23.92-45.58,45.54-84.43,84.47c-1.47,1.46-3.21,2.49-5.07,3.05-.4.12-.79.24-1.19.32-.79.16-1.62.24-2.42.24h-.32l-4.44-.12-89.1-2.34c-7.72-.2-12.59-6.93-12-13.54.08-.75.24-1.5.44-2.26.59-1.86,1.62-3.68,3.17-5.23l86.61-86.61,43.36-43.32,23.44-23.48,43.96-43.96,36.91-36.87.16-.16,10.97-11.01-.75-.79-24.43-24.47c-5.7-5.7-11.52-11.48-17.23-17.19l-51.01-51.05-94.65-94.61-57.42-57.34v-.04c-5.07-5.07-4.51-12.51-.36-17.07.28-.32.55-.59.83-.83.59-.55,1.23-.99,1.9-1.43.67-.4,1.43-.75,2.22-1.03.36-.16.79-.24,1.19-.36.83-.16,1.7-.28,2.61-.32l89.18-2.3,4.36-.12c.95-.04,1.9.04,2.85.24.79.16,1.54.4,2.26.71,1.47.59,2.81,1.51,3.96,2.65t.08.04l188.58,188.62c.12.12.28.24.4.36l10.85,10.85,199.83-199.83s.04-.04.08-.04c1.15-1.15,2.49-2.06,3.96-2.65.71-.32,1.47-.55,2.26-.71.95-.2,1.9-.28,2.85-.24l4.36.12,89.18,2.3c.91,0,1.78.12,2.61.32.4.12.83.24,1.19.36.79.28,1.54.59,2.22,1.03.67.4,1.31.87,1.9,1.43.32.24.59.51.83.83,4.16,4.51,4.75,12-.36,17.07l-.08.04-57.34,57.34-29.26,29.26-43.36,43.32-22.33,22.37c-.12.12-.28.28-.48.47l-44.59,44.59c-1.86,1.86-3.76,3.72-5.62,5.62-5.7,5.7-11.52,11.48-17.23,17.19l-24.43,24.47-.75.79,10.97,11.01.16.16,36.91,36.87c20.55,20.51,38.69,38.61,43.96,43.96l153.41,153.41c1.58,1.54,2.61,3.37,3.17,5.23Z"/>
</svg>