<?xml version="1.0" encoding="UTF-8"?>
<svg id="Layer_1" data-name="Layer 1" xmlns="http://www.w3.org/2000/svg" viewBox="0 0 1080 1080">
  <defs>
    <style>
      .cls-1 {
        fill: #d9d4c8;
        stroke-width: 0px;
      }
    </style>
  </defs>
  <path class="cls-1" d="M823.13,451.9c-10.88-42.2-49.24-73.45-94.77-73.45h-128.19v54.47h128.15c19.46,0,35.96,12.85,41.46,30.52,1.27,4.08,1.95,8.41,1.95,12.9v275.55c0,4.48-.68,8.81-1.95,12.88-5.5,17.65-22,30.5-41.46,30.5h-376.66c-19.46,0-35.96-12.85-41.46-30.5-1.27-4.07-1.95-8.4-1.95-12.88v-275.55c0-4.49.68-8.82,1.95-12.9,5.5-17.66,22-30.52,41.46-30.52h128.15v-54.47h-128.19c-45.53,0-83.89,31.25-94.77,73.45-2.01,7.81-3.09,16-3.09,24.44v275.55c0,8.43,1.07,16.62,3.09,24.43,10.88,42.18,49.24,73.43,94.77,73.43h376.73c45.53,0,83.89-31.25,94.77-73.43,2.01-7.81,3.09-16,3.09-24.43v-275.55c0-8.44-1.07-16.63-3.09-24.44Z"/>
  <path class="cls-1" d="M459.23,546.99c-.74,0-1.8.19-2.77,1.13l-33.01,33.01c-.23.23-.42.48-.58.74-.1.19-.19.35-.26.55-.03.06-.06.13-.06.19-.06.19-.13.35-.16.55-.03.23-.06.48-.06.74s.03.52.06.77c.03.19.1.35.16.55,0,.06.03.1.06.16.06.19.16.39.26.58.19.26.35.48.58.71l113.78,113.75c.93.93,2.03,1.16,2.77,1.16s1.84-.23,2.77-1.16l113.78-113.75c.23-.23.42-.48.58-.71.1-.19.19-.39.26-.58.03-.06.06-.13.06-.16.06-.19.13-.35.16-.55.03-.26.06-.52.06-.77s-.03-.52-.06-.74c-.03-.19-.1-.35-.16-.55,0-.06-.03-.13-.06-.19-.06-.19-.16-.35-.26-.55-.16-.26-.35-.48-.58-.74l-33.01-33.01c-.93-.93-2.03-1.13-2.77-1.13s-1.8.19-2.77,1.16l-28.75,28.75-22.01,22.05V234.18c0-2.19-1.77-3.93-3.93-3.93h-46.61c-2.16,0-3.93,1.74-3.93,3.93v364.77l-22.01-22.05-28.75-28.75c-.97-.97-2.03-1.16-2.77-1.16Z"/>
</svg>