<?xml version="1.0" encoding="UTF-8"?>
<svg id="Layer_1" data-name="Layer 1" xmlns="http://www.w3.org/2000/svg" viewBox="0 0 1080 1080">
  <defs>
    <style>
      .cls-1 {
        fill: #d9d4c8;
        stroke-width: 0px;
      }
    </style>
  </defs>
  <path class="cls-1" d="M897.04,535.96c-2.69-195.32-163.91-354.46-356.72-352.12-198.05,2.38-358.81,164.12-356.02,358.14,2.88,199.2,163.6,357.38,360.44,354.75,197.76-2.67,355.01-163.7,352.3-360.77ZM621.1,424.29c.08,2.49-.43,4.99-.8,8.93-11.52.64-22.64,1.13-33.73,1.91-14.79,1.07-22.33,9.3-22.61,23.99-.23,12.2-.04,24.42-.04,38.45h54.6c-2.05,16.41-3.25,31.18-6.18,45.6-.72,3.49-7,7.91-11.09,8.3-11.63,1.13-23.44.41-36.66.41v141.21h-57.27v-140.95h-47.45v-54.7h47.16c0-14.36-.08-27.52,0-40.71.35-47.78,26.11-74.01,73.74-73.25,50.78.8,38.92-5.3,40.34,40.79Z"/>
</svg>