<?xml version="1.0" encoding="UTF-8"?>
<svg id="Layer_1" data-name="Layer 1" xmlns="http://www.w3.org/2000/svg" viewBox="0 0 1080 1080">
  <defs>
    <style>
      .cls-1 {
        fill: #d9d4c8;
        stroke-width: 0px;
      }
    </style>
  </defs>
  <path class="cls-1" d="M860.37,491.18l-138.15,136.25,33.91,191.04c1.95,11.03-2.44,22-11.45,28.63-5.08,3.73-11.05,5.69-17.29,5.69-4.64,0-9.29-1.13-13.46-3.29l-172.27-89.31-171.21,91.29c-4.24,2.26-9.01,3.46-13.76,3.46-6.1,0-11.99-1.91-17.01-5.5-9.08-6.53-13.6-17.43-11.78-28.48l31.7-191.44-139.72-134.63c-8.07-7.78-10.96-19.22-7.56-29.89,3.39-10.67,12.38-18.33,23.45-20l191.86-29.02,84.86-174.49c4.89-10.07,14.89-16.36,26.09-16.43h.16c11.12,0,21.13,6.18,26.1,16.13l86.88,173.5,192.18,26.78c11.09,1.56,20.16,9.11,23.68,19.74,3.52,10.64.75,22.11-7.22,29.98Z"/>
</svg>