<?xml version="1.0" encoding="UTF-8"?>
<svg id="Layer_1" data-name="Layer 1" xmlns="http://www.w3.org/2000/svg" viewBox="0 0 1080 1080">
  <defs>
    <style>
      .cls-1 {
        fill: #792e29;
        stroke-width: 0px;
      }
    </style>
  </defs>
  <path class="cls-1" d="M949.03,507.13h-496.81c-15.61,0-29.18-10.75-32.78-25.95l-14.09-59.88c-3.6-15.2-17.17-25.95-32.81-25.95h-241.57c-20.73,0-36.56,18.54-33.26,39.04l64.89,403.23c2.63,16.32,16.72,28.33,33.26,28.33h706.31c16.54,0,30.63-12.01,33.26-28.33l46.87-291.44c3.3-20.47-12.5-39.04-33.26-39.04Z"/>
  <path class="cls-1" d="M309.46,329.67c0-29,23.58-52.58,52.58-52.58h427.14c29,0,52.58,23.58,52.58,52.58v147.8h63.03v-147.8c0-63.74-51.87-115.61-115.61-115.61h-427.14c-63.74,0-115.61,51.87-115.61,115.61v36h63.03v-36Z"/>
</svg>