<?xml version="1.0" encoding="UTF-8"?>
<svg id="Layer_1" data-name="Layer 1" xmlns="http://www.w3.org/2000/svg" viewBox="0 0 1080 1080">
  <defs>
    <style>
      .cls-1 {
        fill: #d9d4c8;
        stroke-width: 0px;
      }
    </style>
  </defs>
  <path class="cls-1" d="M799.43,755.71l-172.43-194.8h105.97c17.4,0,26.64-20.54,15.11-33.56l-136.53-154.25h44.82c17.4,0,26.64-20.54,15.11-33.56l-116.37-131.47c-8.03-9.07-22.19-9.07-30.23,0l-116.37,131.47c-11.53,13.03-2.28,33.56,15.11,33.56h44.82l-136.53,154.25c-11.53,13.03-2.28,33.56,15.11,33.56h105.97l-172.43,194.8c-11.53,13.03-2.28,33.56,15.11,33.56h184.22v69.29c0,11.15,9.04,20.18,20.18,20.18h79.82c11.15,0,20.18-9.04,20.18-20.18v-69.29h184.22c17.4,0,26.64-20.54,15.11-33.56Z"/>
</svg>