<?xml version="1.0" encoding="UTF-8"?>
<svg id="Layer_1" data-name="Layer 1" xmlns="http://www.w3.org/2000/svg" viewBox="0 0 1080 1080">
  <defs>
    <style>
      .cls-1 {
        fill: #792e29;
        stroke-width: 0px;
      }
    </style>
  </defs>
  <rect class="cls-1" x="389.3" y="517.04" width="276.7" height="276.7" rx="138.35" ry="138.35"/>
  <path class="cls-1" d="M642,286.26c-62.89,0-114.06,51.17-114.06,114.06s51.17,114.06,114.06,114.06,114.06-51.17,114.06-114.06-51.17-114.06-114.06-114.06ZM642,458.74c-32.21,0-58.42-26.21-58.42-58.42s26.21-58.42,58.42-58.42,58.42,26.21,58.42,58.42-26.21,58.42-58.42,58.42Z"/>
  <path class="cls-1" d="M387.09,399.57h0c34.85,0,63.15,28.3,63.15,63.15h0c0,34.86-28.3,63.15-63.15,63.15h0c-34.85,0-63.15-28.3-63.15-63.15h0c0-34.85,28.3-63.15,63.15-63.15Z"/>
</svg>