<?xml version="1.0" encoding="UTF-8"?>
<svg id="Layer_1" data-name="Layer 1" xmlns="http://www.w3.org/2000/svg" viewBox="0 0 1080 1080">
  <defs>
    <style>
      .cls-1 {
        fill: #d9d4c8;
        stroke-width: 0px;
      }
    </style>
  </defs>
  <path class="cls-1" d="M541.62,184.24c-196.05-.02-357.11,160-357.36,355.04-.23,198,159.55,357.73,357.53,357.34,196.95-.37,355.37-159.09,355.29-355.96-.08-196.46-159.57-356.38-355.45-356.42ZM686.62,608.52c-1.54,45.56-31.49,76.8-77.01,78.94-46.22,2.16-92.7,2.12-138.94.06-46.1-2.01-75.59-33.81-77.65-80.03-.37-8.32-.49-16.66-.49-24.98,0-9.26.14-18.55.23-27.81.02-1.5.04-3,.04-4.48.04-3.04.06-6.06.06-9.1,0-3.53-.02-7.05-.06-10.58-.04-3.53-.08-7.07-.12-10.6-.21-15.59-.39-31.2.35-46.75,2.16-45.42,31.76-76.7,77.15-78.57,46.22-1.89,92.64-2.03,138.86-.12,45.68,1.87,75.86,32.58,77.52,78.14,1.64,45.25,1.6,90.63.06,135.88Z"/>
  <path class="cls-1" d="M615.2,422.54c-49.77-1.89-99.73-2.1-149.48-.12-26.62,1.05-43.86,19.41-44.84,46.55-1.73,47.76-1.89,95.68,0,143.42,1.15,29.29,20.85,46.4,50.59,48.09,21.01,1.17,42.17.23,63.27.23v-.31c25.72,0,51.5,1.09,77.13-.31,25.88-1.4,45.87-19.39,46.77-45.07,1.73-49.3,1.62-98.74.04-148.06-.8-24.9-18.61-43.47-43.49-44.41ZM539.77,616.97c-42.15-.25-75.76-33.65-75.82-75.33-.06-43.28,32.74-76.62,75.61-76.89,42.89-.27,76.52,33.11,76.5,75.92,0,42.81-33.75,76.56-76.29,76.29ZM619.19,478.99c-10.64-.12-18.75-6.98-17.15-17.3,1.13-7.23,8.79-13.48,13.54-20.15,2.44,0,4.89.02,7.33.02,4.64,6.68,12.16,12.92,13.25,20.15,1.52,10.15-6.12,17.4-16.97,17.28Z"/>
  <path class="cls-1" d="M539.36,491.27c-26.46,0-48.74,22.39-49.07,49.3-.33,27.4,22.21,49.75,50.02,49.61,27.63-.16,49.71-22.86,49.2-50.59-.49-26.5-23.15-48.31-50.14-48.31Z"/>
</svg>