<?xml version="1.0" encoding="UTF-8"?>
<svg id="Layer_1" data-name="Layer 1" xmlns="http://www.w3.org/2000/svg" viewBox="0 0 1080 1080">
  <defs>
    <style>
      .cls-1 {
        fill: #d9d4c8;
        stroke-width: 0px;
      }
    </style>
  </defs>
  <path class="cls-1" d="M852.72,442.87c0,6.48-3.35,12.28-8.98,15.51l-127.1,73.02-167.74,96.37c-5.39,3.1-12.42,3.1-17.84-.01l-167.72-96.36-127.1-73.02c-5.63-3.23-8.98-9.02-8.98-15.51-.01-6.5,3.35-12.31,8.98-15.53l294.82-169.38c2.76-1.57,5.84-2.37,8.93-2.37s6.17.8,8.93,2.37l294.82,169.38c5.63,3.23,8.98,9.04,8.98,15.53Z"/>
  <path class="cls-1" d="M852.73,535.41c0,9.33-4.95,17.96-12.97,22.71l-33.19,18.77-89.91,51.66-167.72,96.35c-2.73,1.58-5.83,2.36-8.93,2.36s-6.23-.78-8.93-2.36l-167.72-96.35-89.91-51.66-32.79-18.53c-.13-.07-.27-.17-.4-.24-8.02-4.75-12.97-13.38-12.97-22.71,0-15.4,12.67-26.42,26.42-26.42,4.35,0,8.8,1.11,13.01,3.5.07.03.17.1.24.13l35.25,20.62,58.94,33.87,2.22,1.28,167.72,96.38c2.7,1.55,5.83,2.33,8.93,2.33s6.2-.78,8.93-2.33l167.72-96.38,2.22-1.28,58.94-33.87,35.49-20.76c4.21-2.39,8.66-3.5,13.01-3.5,13.75,0,26.42,11.02,26.42,26.42Z"/>
  <path class="cls-1" d="M852.73,632.57c0,9.33-4.95,17.96-12.97,22.71l-33.19,18.77-89.91,51.66-167.72,96.35c-2.73,1.58-5.83,2.36-8.93,2.36s-6.23-.78-8.93-2.36l-167.72-96.35-89.91-51.66-32.79-18.53c-.13-.07-.27-.17-.4-.24-8.02-4.75-12.97-13.38-12.97-22.71,0-15.4,12.67-26.42,26.42-26.42,4.35,0,8.8,1.11,13.01,3.5.07.03.17.1.24.13l35.25,20.62,58.94,33.87,2.22,1.28,167.72,96.38c2.7,1.55,5.83,2.33,8.93,2.33s6.2-.78,8.93-2.33l167.72-96.38,2.22-1.28,58.94-33.87,35.49-20.76c4.21-2.39,8.66-3.5,13.01-3.5,13.75,0,26.42,11.02,26.42,26.42Z"/>
</svg>