<?xml version="1.0" encoding="UTF-8"?>
<svg id="Layer_1" data-name="Layer 1" xmlns="http://www.w3.org/2000/svg" viewBox="0 0 1080 1080">
  <defs>
    <style>
      .cls-1 {
        fill: #792e29;
        stroke-width: 0px;
      }
    </style>
  </defs>
  <path class="cls-1" d="M831.28,395.11l-147.69-147.7c-10.24-10.24-24.41-16.11-38.89-16.11s-27.5,5.42-37.52,15.28c-10.39,10.22-16.1,23.86-16.1,38.39-.01,14.39,5.59,27.93,15.78,38.12l3.69,3.69-90.35,90.35-137.26,5.21c-10.93.41-21.21,4.9-28.94,12.64l-28.38,28.38c-8.17,8.17-12.67,19.03-12.67,30.58s4.5,22.41,12.67,30.58l85.15,85.15-171.06,171.06-5.63,10.93-3.55,21.08c-1.33,7.92.24,16.15,4.79,22.77,5.73,8.32,15.06,13.18,25,13.18,1.69,0,3.39-.14,5.05-.42l21.66-3.65,10.93-5.64,171.06-171.06,85.15,85.15c8.17,8.17,19.03,12.67,30.58,12.67s22.41-4.5,30.58-12.67l28.39-28.39c7.73-7.73,12.22-18.01,12.63-28.94l5.21-137.26,90.35-90.35,3.06,3.06c10.5,10.5,24.74,16.63,39.58,16.41s27.54-5.91,37.56-16.09c20.66-21,20.29-55.28-.84-76.41Z"/>
</svg>