<?xml version="1.0" encoding="UTF-8"?>
<svg id="Layer_1" data-name="Layer 1" xmlns="http://www.w3.org/2000/svg" viewBox="0 0 1080 1080">
  <defs>
    <style>
      .cls-1 {
        fill: #d9d4c8;
        stroke-width: 0px;
      }
    </style>
  </defs>
  <rect class="cls-1" x="157.07" y="219.11" width="765.86" height="121.73" rx="12.94" ry="12.94"/>
  <rect class="cls-1" x="157.07" y="219.11" width="765.86" height="121.73" rx="12.94" ry="12.94"/>
  <rect class="cls-1" x="157.07" y="219.11" width="765.86" height="121.73" rx="12.94" ry="12.94"/>
  <rect class="cls-1" x="157.07" y="219.11" width="765.86" height="121.73" rx="12.94" ry="12.94"/>
  <rect class="cls-1" x="157.07" y="479.14" width="765.86" height="121.72" rx="12.94" ry="12.94"/>
  <rect class="cls-1" x="157.07" y="479.14" width="765.86" height="121.72" rx="12.94" ry="12.94"/>
  <rect class="cls-1" x="157.07" y="479.14" width="765.86" height="121.72" rx="12.94" ry="12.94"/>
  <rect class="cls-1" x="157.07" y="479.14" width="765.86" height="121.72" rx="12.94" ry="12.94"/>
  <rect class="cls-1" x="157.07" y="739.16" width="765.86" height="121.73" rx="12.94" ry="12.94"/>
  <rect class="cls-1" x="157.07" y="739.16" width="765.86" height="121.73" rx="12.94" ry="12.94"/>
  <rect class="cls-1" x="157.07" y="739.16" width="765.86" height="121.73" rx="12.94" ry="12.94"/>
  <rect class="cls-1" x="157.07" y="739.16" width="765.86" height="121.73" rx="12.94" ry="12.94"/>
</svg>