<?xml version="1.0" encoding="UTF-8"?>
<svg id="Layer_1" data-name="Layer 1" xmlns="http://www.w3.org/2000/svg" viewBox="0 0 1080 1080">
  <defs>
    <style>
      .cls-1 {
        fill: #d9d4c8;
        stroke-width: 0px;
      }
    </style>
  </defs>
  <path class="cls-1" d="M604.3,331.85c3.3,2.29,7.65,2.55,11.05.4,22.68-14.41,48.98-22.07,76.63-22.07,79.39,0,143.98,64.59,143.98,143.98,0,26.84-7.55,53.07-21.58,75.71-3.2,5.16-1.04,12.06,4.54,14.45,7.48,3.2,37.18,21.49,41.48,24.95,4.73,3.81,11.75,2.72,14.94-2.45,20.26-32.79,31.94-71.38,31.94-112.67,0-118.69-96.57-215.3-215.3-215.3-51.99,0-99.72,18.53-136.95,49.36-5.8,4.8-4.47,13.97,2.4,17.06.05.02.1.04.14.07,4.31,1.98,35.93,19.01,46.72,26.5Z"/>
  <path class="cls-1" d="M840.63,609.73c-6.85-6.45-14.37-12.11-22.44-16.98-8.27-4.99-17.18-9.14-26.52-12.27-13.34-4.43-27.59-6.85-42.39-6.85-20.54,0-39.97,4.63-57.35,12.86.04-1.62.04-3.32.04-4.99,0-90.59-46.38-170.34-116.75-216.76-11.28-7.52-23.19-14.09-35.66-19.75-8.63-3.92-17.49-7.36-26.6-10.33-8.75-2.85-17.65-5.26-26.75-7.16-17.37-3.68-35.38-5.62-53.86-5.62-143.39,0-259.62,116.24-259.62,259.62s116.24,259.62,259.62,259.62h316.93c73.85,0,133.73-59.88,133.73-133.73,0-26.36-7.64-50.94-20.78-71.63-6.09-9.58-13.34-18.32-21.61-26.04Z"/>
</svg>