<?xml version="1.0" encoding="UTF-8"?>
<svg id="Layer_1" data-name="Layer 1" xmlns="http://www.w3.org/2000/svg" viewBox="0 0 1080 1080">
  <defs>
    <style>
      .cls-1 {
        fill: #d9d4c8;
        stroke-width: 0px;
      }
    </style>
  </defs>
  <path class="cls-1" d="M452.14,525.53l205.13-112.77c17.61,20.61,43.77,33.66,72.97,33.66,52.82,0,95.66-42.64,95.99-95.36v-.59c0-53.02-42.97-95.99-95.99-95.99h-.59c-52.72.33-95.36,43.17-95.36,95.99,0,4.2.26,8.32.83,12.35l-210.61,115.78c-17.37-21.54-43.83-35.41-73.56-35.74-.4-.03-.79-.03-1.19-.03-52.98,0-95.96,42.97-95.96,95.96,0,22.3,7.6,42.78,20.35,59.06.5.66,1.02,1.35,1.55,2.01,17.61,21.31,44.26,34.91,74.06,34.91s55.79-13.25,73.36-34.12l212,116.54c-.56,4.03-.83,8.16-.83,12.35,0,52.82,42.64,95.66,95.36,95.99h.59c53.02,0,95.99-42.97,95.99-95.99v-.59c-.33-52.72-43.17-95.36-95.99-95.36-29.2,0-55.36,13.05-72.97,33.66l-205.13-112.77c-3.01-1.65-5.35-4.2-6.84-7.17.26-2.81.4-5.65.4-8.52,0-2.15-.07-4.26-.23-6.38,1.49-2.87,3.77-5.25,6.67-6.87Z"/>
</svg>