<?xml version="1.0" encoding="UTF-8"?>
<svg id="Layer_1" data-name="Layer 1" xmlns="http://www.w3.org/2000/svg" viewBox="0 0 1080 1080">
  <defs>
    <style>
      .cls-1 {
        fill: #d9d4c8;
        stroke-width: 0px;
      }
    </style>
  </defs>
  <path class="cls-1" d="M490.95,195.11h98.1c20.39,0,36.94,16.55,36.94,36.94v95.85c0,20.39-16.55,36.94-36.94,36.94h-98.1c-20.39,0-36.94-16.55-36.94-36.94v-95.85c0-20.39,16.55-36.94,36.94-36.94Z"/>
  <rect class="cls-1" x="454.01" y="455.14" width="171.98" height="169.73" rx="36.94" ry="36.94"/>
  <path class="cls-1" d="M490.95,715.16h98.1c20.39,0,36.94,16.55,36.94,36.94v95.85c0,20.39-16.55,36.94-36.94,36.94h-98.1c-20.39,0-36.94-16.55-36.94-36.94v-95.85c0-20.39,16.55-36.94,36.94-36.94Z"/>
</svg>