<?xml version="1.0" encoding="UTF-8"?>
<svg id="Layer_1" data-name="Layer 1" xmlns="http://www.w3.org/2000/svg" viewBox="0 0 1080 1080">
  <defs>
    <style>
      .cls-1 {
        fill: #d9d4c8;
        stroke-width: 0px;
      }
    </style>
  </defs>
  <path class="cls-1" d="M877.27,589.38v203.45c0,19.37-15.7,35.07-35.07,35.07h-123.02c-19.37,0-35.11-15.7-35.11-35.07v-142.94c0-19.37,15.74-35.11,35.11-35.11h72.72c17.77,0,32.46,13.23,34.78,30.35v-17.41c0-1.13,0-2.29-.04-3.42v-1.02c-2.36-155.3-128.04-309.36-282.61-312.23-.25-.04-.51-.04-.76-.04-.94,0-1.89-.04-2.83-.04h-.87c-.94,0-1.89.04-2.83.04-.25,0-.51,0-.76.04-154.57,2.87-280.25,156.93-282.61,312.23v1.02c-.04,1.13-.04,2.29-.04,3.42v13.74c3.78-15.3,17.63-26.68,34.09-26.68h72.72c19.37,0,35.11,15.74,35.11,35.11v142.94c0,19.37-15.74,35.07-35.11,35.07h-122.33c-19.37,0-35.07-15.7-35.07-35.07v-203.45c0-93.15,37.76-177.47,98.78-238.53,56.3-56.26,132.36-92.75,216.9-98.06h.11c1.38-.11,2.8-.18,4.22-.25,1.05-.04,2.14-.11,3.2-.15.94-.04,1.85-.07,2.8-.11,1.2-.04,2.4-.07,3.6-.11,1.67-.04,3.34-.04,5.05-.07,3.16-.04,8.4.04,11.56.11.8.04,1.56.04,2.33.07.94.04,1.85.07,2.8.11,1.05.04,2.14.11,3.2.15,1.42.07,2.83.15,4.22.25h.11c84.54,5.31,160.6,41.8,216.9,98.06,61.02,61.06,98.78,145.38,98.78,238.53Z"/>
</svg>