<?xml version="1.0" encoding="UTF-8"?>
<svg id="Layer_1" data-name="Layer 1" xmlns="http://www.w3.org/2000/svg" viewBox="0 0 1080 1080">
  <defs>
    <style>
      .cls-1 {
        fill: #d9d4c8;
        stroke-width: 0px;
      }
    </style>
  </defs>
  <path class="cls-1" d="M806.31,743.46h-114.46c-50.05,0-90.76,40.7-90.76,90.73v62.58h295.98v-62.58c0-50.03-40.71-90.73-90.76-90.73ZM885.96,885.66h-273.76v-51.47c0-43.9,35.73-79.62,79.65-79.62h114.46c43.92,0,79.65,35.72,79.65,79.62v51.47Z"/>
  <path class="cls-1" d="M885.96,834.19v51.47h-273.76v-51.47c0-43.9,35.73-79.62,79.65-79.62h114.46c43.92,0,79.65,35.72,79.65,79.62Z"/>
  <path class="cls-1" d="M749.08,607.24c-31.78,0-57.63,25.85-57.63,57.62s25.85,57.61,57.63,57.61,57.63-25.84,57.63-57.61-25.85-57.62-57.63-57.62ZM749.08,711.36c-25.65,0-46.52-20.86-46.52-46.5s20.87-46.51,46.52-46.51,46.52,20.86,46.52,46.51-20.87,46.5-46.52,46.5Z"/>
  <path class="cls-1" d="M795.6,664.86c0,25.64-20.87,46.5-46.52,46.5s-46.52-20.86-46.52-46.5,20.87-46.51,46.52-46.51,46.52,20.86,46.52,46.51Z"/>
  <path class="cls-1" d="M500.31,183.95v340.78h55.85l123.44,59.12v-59.12h217.47V183.95h-396.76ZM885.96,513.63h-217.47v52.58l-109.81-52.58h-47.26V195.06h374.54v318.57Z"/>
  <path class="cls-1" d="M511.42,195.06v318.57h47.26l109.81,52.58v-52.58h217.47V195.06h-374.54ZM857.14,489.21h-317.61V224.94h11.11v253.16h39.4v-72.55h55.9v72.55h49.7v-159.73h55.9v159.73h49.7v-253.16h55.9v264.27Z"/>
  <path class="cls-1" d="M554.87,717.29c-5.64,0-11.18,1.51-16.02,4.34l-56.46-56.45c3.73-5.3,5.73-11.61,5.73-18.23,0-17.55-14.27-31.82-31.83-31.82s-31.84,14.27-31.84,31.82c0,7.5,2.6,14.63,7.32,20.28h0s-55.82,55.81-55.82,55.81h-.01c-5.29-3.75-11.61-5.75-18.23-5.75-5.63,0-11.17,1.51-16.01,4.34l-56.47-56.45c3.73-5.3,5.73-11.61,5.73-18.23,0-17.55-14.27-31.82-31.82-31.82s-31.85,14.27-31.85,31.82,14.29,31.83,31.85,31.83c6.62,0,12.95-2.01,18.24-5.74l55.81,55.79c-2.36,2.83-4.19,6.04-5.43,9.47s-1.89,7.08-1.89,10.83c0,17.55,14.29,31.83,31.84,31.83s31.83-14.28,31.83-31.83c0-6.62-2.02-12.92-5.75-18.22l56.48-56.46c4.83,2.82,10.37,4.33,16.02,4.33,6.62,0,12.94-2.01,18.22-5.73l55.82,55.8c-2.35,2.83-4.18,6.03-5.42,9.46s-1.89,7.08-1.89,10.82c0,17.55,14.29,31.83,31.85,31.83s31.82-14.28,31.82-31.83-14.27-31.84-31.82-31.84ZM277.19,657.14c-.91,1.61-2.05,3.12-3.42,4.47-1.33,1.35-2.82,2.48-4.44,3.38-3.07,1.76-6.56,2.68-10.19,2.68-11.43,0-20.74-9.3-20.74-20.72s9.31-20.71,20.74-20.71,20.71,9.28,20.71,20.71c0,3.63-.92,7.12-2.66,10.19ZM357.71,769.85c-11.43,0-20.73-9.3-20.73-20.72,0-6.21,2.76-12.06,7.56-16.03,3.74-3.08,8.3-4.7,13.17-4.7,5.54,0,10.75,2.16,14.64,6.1,3.92,3.9,6.08,9.1,6.08,14.63,0,11.42-9.29,20.72-20.72,20.72ZM470.93,661.61c-3.89,3.9-9.1,6.06-14.64,6.06-4.86,0-9.41-1.62-13.16-4.71-4.81-3.95-7.57-9.78-7.57-16.01,0-11.43,9.3-20.71,20.73-20.71s20.72,9.28,20.72,20.71c0,5.55-2.16,10.74-6.08,14.66ZM554.87,769.85c-11.43,0-20.73-9.3-20.73-20.72,0-4.51,1.46-8.83,4.09-12.38.99-1.33,2.14-2.57,3.46-3.65,1.67-1.37,3.49-2.44,5.42-3.22,2.44-.97,5.04-1.48,7.76-1.48,11.43,0,20.71,9.3,20.71,20.73s-9.28,20.72-20.71,20.72Z"/>
  <polygon class="cls-1" points="509.61 832.17 326.14 832.17 326.14 876.02 234.56 832.17 195.37 832.17 195.37 565.15 509.61 565.15 509.61 641.86 520.72 641.86 520.72 554.04 184.26 554.04 184.26 843.28 232.04 843.28 337.25 893.66 337.25 843.28 520.72 843.28 520.72 795.74 509.61 795.74 509.61 832.17"/>
</svg>