<?xml version="1.0" encoding="UTF-8"?>
<svg id="Layer_1" data-name="Layer 1" xmlns="http://www.w3.org/2000/svg" viewBox="0 0 1080 1080">
  <defs>
    <style>
      .cls-1 {
        fill: #792e29;
        stroke-width: 0px;
      }
    </style>
  </defs>
  <rect class="cls-1" x="346.36" y="346.36" width="387.27" height="387.27" rx="193.64" ry="193.64"/>
  <path class="cls-1" d="M506.81,305.4c1.04,7.84,7.73,13.69,15.63,13.69h35.11c7.91,0,14.59-5.85,15.63-13.69l12.16-91.18c1.26-9.46-6.1-17.86-15.63-17.86h-59.42c-9.54,0-16.9,8.4-15.63,17.86l12.16,91.18Z"/>
  <path class="cls-1" d="M573.19,774.6c-1.04-7.84-7.73-13.69-15.63-13.69h-35.11c-7.91,0-14.59,5.85-15.63,13.69l-12.16,91.18c-1.26,9.46,6.1,17.86,15.63,17.86h59.42c9.54,0,16.9-8.4,15.63-17.86l-12.16-91.18Z"/>
  <path class="cls-1" d="M708.62,396.21c5.59,5.59,14.46,6.18,20.73,1.38l52.68-35.49c7.58-5.79,8.32-16.94,1.57-23.68l-42.02-42.02c-6.75-6.75-17.89-6.01-23.68,1.57l-35.48,52.68c-4.8,6.28-4.21,15.14,1.38,20.73l24.83,24.82Z"/>
  <path class="cls-1" d="M371.38,683.79c-5.59-5.59-14.45-6.18-20.73-1.38l-52.68,35.49c-7.58,5.79-8.32,16.94-1.57,23.68l42.02,42.02c6.75,6.75,17.89,6.01,23.68-1.57l35.48-52.68c4.8-6.28,4.21-15.14-1.38-20.73l-24.82-24.82Z"/>
  <path class="cls-1" d="M297.97,362.1l52.68,35.48c6.28,4.8,15.14,4.21,20.73-1.38l24.82-24.82c5.59-5.59,6.18-14.46,1.38-20.73l-35.48-52.68c-5.8-7.58-16.94-8.32-23.68-1.57l-42.02,42.02c-6.75,6.75-6.01,17.89,1.57,23.68Z"/>
  <path class="cls-1" d="M782.03,717.9l-52.68-35.48c-6.28-4.8-15.14-4.21-20.73,1.38l-24.82,24.83c-5.59,5.59-6.18,14.45-1.38,20.73l35.48,52.68c5.79,7.58,16.94,8.32,23.68,1.57l42.02-42.02c6.75-6.75,6.01-17.89-1.57-23.68Z"/>
  <path class="cls-1" d="M865.78,494.65l-91.18,12.16c-7.84,1.04-13.69,7.73-13.69,15.64v35.11c0,7.91,5.85,14.59,13.69,15.63l91.18,12.16c9.46,1.26,17.86-6.1,17.86-15.63v-59.42c0-9.54-8.4-16.9-17.86-15.63Z"/>
  <path class="cls-1" d="M319.09,557.55v-35.11c0-7.91-5.85-14.59-13.69-15.63l-91.18-12.16c-9.46-1.26-17.86,6.1-17.86,15.63v59.42c0,9.54,8.4,16.9,17.86,15.63l91.18-12.16c7.84-1.04,13.69-7.73,13.69-15.63Z"/>
</svg>