<?xml version="1.0" encoding="UTF-8"?>
<svg id="Layer_1" data-name="Layer 1" xmlns="http://www.w3.org/2000/svg" viewBox="0 0 1080 1080">
  <defs>
    <style>
      .cls-1 {
        fill: #792e29;
        stroke-width: 0px;
      }
    </style>
  </defs>
  <path class="cls-1" d="M706.12,576.04H252.24c-11.06,0-20.02-8.96-20.02-20.02v-19.25c0-11.06,8.96-20.02,20.02-20.02h453.57c23.52-.27,45.29-9.49,61.31-25.97,13.89-14.29,21.67-32.72,21.35-50.58-.38-20.95-12.14-43.14-30.69-57.92-14.83-11.82-31.92-17.13-45.7-14.23-14.83,3.12-26,15.73-32.93,26.17-5.39,8.12-15.78,11.24-24.71,7.35l-17.91-7.8c-11.28-4.91-15.47-18.7-8.91-29.1,12.83-20.34,36.02-47.02,72.24-54.65,31.36-6.61,65.93,2.83,94.86,25.88,32.51,25.9,52.34,64.49,53.03,103.23.6,33.55-13.29,67.44-38.12,92.98-27.16,27.94-63.87,43.54-103.37,43.93h-.15Z"/>
  <path class="cls-1" d="M455.24,471.65h-153.25c-11.06,0-20.02-8.96-20.02-20.02v-19.25c0-11.06,8.96-20.02,20.02-20.02h152.94c23.51-.27,45.29-9.49,61.31-25.97,13.89-14.28,21.67-32.72,21.35-50.57-.38-20.95-12.14-43.14-30.69-57.92-14.83-11.81-31.91-17.13-45.7-14.23-14.83,3.12-26,15.73-32.93,26.17-5.39,8.12-15.78,11.24-24.72,7.35l-17.9-7.8c-11.27-4.91-15.47-18.7-8.9-29.1,12.83-20.34,36.02-47.02,72.24-54.64,31.35-6.59,65.92,2.83,94.85,25.88,32.51,25.9,52.34,64.49,53.03,103.24.6,33.55-13.29,67.44-38.12,92.97-27.16,27.94-63.87,43.54-103.37,43.93h-.15Z"/>
  <g>
    <path class="cls-1" d="M587.53,876.43c-6.76,0-13.45-.68-20.01-2.06-36.23-7.63-59.41-34.3-72.24-54.65-6.56-10.4-2.37-24.19,8.91-29.1l17.91-7.8c8.93-3.89,19.32-.77,24.71,7.35,6.93,10.44,18.09,23.05,32.93,26.17,13.78,2.9,30.87-2.42,45.69-14.23,18.56-14.78,30.32-36.98,30.69-57.92.32-17.85-7.46-36.29-21.35-50.57-16.03-16.48-37.8-25.7-61.32-25.97h-207.23c-11.06,0-20.02-8.96-20.02-20.02v-19.25c0-11.06,8.96-20.02,20.02-20.02h207.69c39.5.4,76.21,16,103.37,43.94,24.83,25.54,38.72,59.42,38.12,92.98-.7,38.74-20.52,77.34-53.04,103.23-22.88,18.22-49.29,27.94-74.84,27.94Z"/>
    <rect class="cls-1" x="232.22" y="606.89" width="60.99" height="60.99" rx="7.09" ry="7.09"/>
  </g>
  <rect class="cls-1" x="656.83" y="203.57" width="60.99" height="60.99" rx="7.09" ry="7.09"/>
  <rect class="cls-1" x="744.44" y="635.13" width="60.99" height="60.99" rx="7.09" ry="7.09"/>
</svg>