<?xml version="1.0" encoding="UTF-8"?>
<svg id="Layer_1" data-name="Layer 1" xmlns="http://www.w3.org/2000/svg" viewBox="0 0 1080 1080">
  <defs>
    <style>
      .cls-1 {
        fill: #d9d4c8;
        stroke-width: 0px;
      }
    </style>
  </defs>
  <path class="cls-1" d="M541.57,182.98c-196.9.6-357.64,160.24-357.31,354.91.35,198.45,159.36,357.27,357.6,357.17,196.62-.1,354.89-158.68,355.18-355.9.29-195.94-160.24-356.78-355.46-356.18ZM554.29,681.44c-25.74,1.46-49.97-3.57-73.75-13.25-6.84-2.79-15.96-3.43-23.06-1.5-23.66,6.47-46.89,14.56-73.51,23.04,8.24-24.28,16.35-44.92,21.98-66.22,2.4-9.16,2.71-21.18-1.23-29.37-45.23-93.8,19.76-208.57,131.98-215.14,80.94-4.72,153.86,60.67,158.89,142.72,5.01,81.62-60.1,155.09-141.29,159.71Z"/>
  <path class="cls-1" d="M480.02,419.05c-55.54,32.39-80.35,92.22-57.84,150.51,10.56,27.38,20.15,51.86-.18,79.03,1.48.6,2.94,1.21,4.42,1.83,7.25-2.16,14.79-3.64,21.71-6.59,15.05-6.43,27.99-5.18,43.56,2.16,54.3,25.61,120.99,6.94,155.89-41.28,36.44-50.38,31.3-113.56-13.19-162.32-38.12-41.78-105.32-51.94-154.37-23.33ZM615.39,583.75c-7.89,8.87-19.7,14.25-26.89,19.16-41.51-7.29-72.09-23.41-93.59-52.91-10.97-15.01-20.5-32.41-25.32-50.18-5.81-21.42,7.23-38.45,24.44-38.14,3.68.06,9.06,1.34,10.64,3.9,4.79,7.83,7.5,16.9,12.14,24.85,5.96,10.25-1.5,15.94-5.79,23.35-1.75,3-1.75,9.74.37,11.85,12.9,12.92,26.25,25.47,40.26,37.15,7.52,6.26,15.45,4.6,20.7-4.37,6.2-10.64,14.32-11.75,24.38-5.42,3.9,2.44,8.09,4.56,12.38,6.2,13.86,5.3,13.56,16.39,6.28,24.54Z"/>
</svg>